<?xml version="1.0" standalone="no"?>
<!DOCTYPE svg PUBLIC "-//W3C//DTD SVG 20010904//EN"
 "http://www.w3.org/TR/2001/REC-SVG-20010904/DTD/svg10.dtd">
<svg version="1.0" xmlns="http://www.w3.org/2000/svg"
 width="144.000000pt" height="144.000000pt" viewBox="0 0 144.000000 144.000000"
 preserveAspectRatio="xMidYMid meet">

<g transform="translate(0.000000,144.000000) scale(0.100000,-0.100000)"
fill="#000000" stroke="none">
<path d="M100 1176 c0 -19 58 -94 93 -120 28 -20 41 -21 405 -24 330 -2 378
-5 394 -19 22 -20 23 -47 2 -67 -13 -14 -60 -16 -360 -16 -386 0 -378 2 -331
-69 43 -65 67 -71 300 -71 113 0 217 -4 230 -9 28 -11 42 -41 32 -69 -11 -35
-49 -42 -240 -42 -102 0 -185 -4 -185 -8 0 -16 59 -91 85 -108 15 -10 55 -19
95 -22 76 -5 93 -16 88 -58 -3 -24 -11 -32 -58 -54 -28 -13 -22 -48 20 -111
23 -33 46 -57 50 -52 7 7 597 892 614 921 6 9 -120 12 -613 12 -530 0 -621 -2
-621 -14z"/>
</g>
</svg>
