<?xml version="1.0" standalone="no"?>
<!DOCTYPE svg PUBLIC "-//W3C//DTD SVG 20010904//EN"
 "http://www.w3.org/TR/2001/REC-SVG-20010904/DTD/svg10.dtd">
<svg version="1.0" xmlns="http://www.w3.org/2000/svg"
 width="595.000000pt" height="111.000000pt" viewBox="0 0 595.000000 111.000000"
 preserveAspectRatio="xMidYMid meet">

<g transform="translate(0.000000,111.000000) scale(0.100000,-0.100000)"
fill="#000000" stroke="none">
<path d="M830 872 c0 -5 9 -17 21 -28 18 -16 40 -20 145 -22 68 -2 124 -8 124
-13 0 -5 -52 -9 -115 -9 -91 0 -115 -3 -115 -14 0 -26 26 -35 105 -38 52 -2
80 -7 83 -15 3 -10 -14 -13 -60 -13 -36 0 -68 -3 -71 -6 -14 -15 15 -44 43
-44 35 0 48 -17 25 -34 -14 -10 -15 -16 -6 -34 6 -12 15 -22 19 -22 6 0 97
133 185 271 l19 29 -201 0 c-111 0 -201 -4 -201 -8z"/>
<path d="M1253 722 c-51 -82 -93 -151 -93 -155 0 -4 22 -7 49 -7 44 0 52 4 71
30 19 27 27 30 74 30 51 0 54 -1 60 -30 5 -29 8 -30 56 -30 27 0 50 3 50 6 0
7 -48 218 -61 267 -10 37 -10 37 -62 37 l-52 0 -92 -148z m136 -9 c1 -7 -8
-13 -19 -13 -23 0 -24 1 -8 35 11 24 13 25 19 8 4 -10 8 -24 8 -30z"/>
<path d="M1567 732 c-15 -76 -27 -146 -27 -155 0 -14 10 -17 49 -17 56 0 49
-15 81 160 11 63 23 123 26 133 5 15 -2 17 -48 17 l-54 0 -27 -138z"/>
<path d="M1717 732 c-15 -76 -27 -146 -27 -155 0 -14 10 -17 50 -17 l50 0 6
40 c4 22 12 40 18 40 7 0 22 -18 35 -40 21 -38 24 -40 72 -40 56 0 59 7 27 58
-19 32 -20 35 -4 44 53 30 78 96 56 149 -19 46 -55 59 -162 59 l-94 0 -27
-138z m181 35 c5 -27 -17 -47 -50 -47 -23 0 -29 4 -24 16 3 9 6 25 6 35 0 17
6 20 32 17 22 -2 34 -9 36 -21z"/>
<path d="M2037 732 c-15 -76 -27 -146 -27 -155 0 -15 17 -17 170 -17 l169 0
16 30 c15 30 18 31 73 28 51 -3 57 -5 62 -28 5 -23 11 -25 55 -25 28 0 49 5
49 10 -1 6 -16 74 -34 153 l-33 142 -53 0 -52 0 -83 -132 c-97 -157 -101 -162
-93 -120 l7 32 -67 0 c-36 0 -66 4 -66 9 0 8 22 127 36 189 4 21 1 22 -49 22
l-53 0 -27 -138z m435 -2 c4 -26 1 -30 -19 -30 -23 0 -23 1 -8 30 9 17 17 30
19 30 2 0 6 -13 8 -30z"/>
<path d="M2680 867 c0 -2 -13 -71 -30 -152 -16 -81 -30 -150 -30 -152 0 -1 22
-3 49 -3 54 0 56 2 66 74 4 25 11 48 15 51 5 3 20 -16 35 -42 42 -73 54 -83
97 -83 21 0 38 2 38 3 0 2 14 71 30 152 17 81 30 150 30 152 0 2 -24 3 -52 1
l-53 -3 -11 -60 c-7 -33 -12 -62 -13 -65 -1 -3 -19 25 -42 63 -40 67 -40 67
-85 67 -24 0 -44 -2 -44 -3z"/>
<path d="M2997 727 c-15 -79 -27 -150 -27 -157 0 -22 206 -9 255 16 74 39 110
123 84 198 -24 66 -54 80 -178 84 l-107 4 -27 -145z m194 53 c26 -14 25 -69
-2 -104 -16 -20 -29 -26 -61 -26 -40 0 -40 0 -34 33 4 17 9 49 13 70 5 33 9
37 35 37 16 0 38 -5 49 -10z"/>
<path d="M3360 843 c0 -16 7 -82 15 -148 8 -65 15 -121 15 -122 0 -2 24 -3 53
-3 l53 0 38 78 c41 82 54 83 55 2 2 -73 8 -80 65 -80 l51 0 73 145 c39 80 72
147 72 150 0 3 -19 5 -43 5 l-43 0 -43 -87 c-46 -93 -59 -96 -60 -12 -1 20 -4
51 -7 68 -6 29 -10 31 -48 31 l-41 0 -45 -85 c-50 -95 -52 -94 -65 28 l-6 57
-45 0 c-41 0 -44 -2 -44 -27z"/>
<path d="M3925 847 c-74 -42 -107 -146 -69 -218 18 -35 82 -68 132 -69 64 0
138 44 168 102 17 33 18 115 0 146 -35 64 -152 84 -231 39z m135 -67 c44 -44
5 -139 -58 -140 -44 0 -62 17 -62 61 0 49 14 77 43 89 35 14 56 11 77 -10z"/>
<path d="M4246 859 c-6 -18 -56 -269 -56 -281 0 -5 21 -8 47 -6 44 3 48 5 53
33 7 43 33 43 58 0 19 -32 25 -35 67 -35 25 0 45 3 45 6 0 4 -9 21 -20 39
l-20 33 40 40 c42 42 51 78 29 125 -18 39 -48 51 -146 55 -72 3 -94 1 -97 -9z
m152 -101 c-3 -31 -5 -33 -47 -36 -37 -3 -43 -1 -37 13 3 9 6 25 6 36 0 16 7
19 41 19 39 0 40 -1 37 -32z"/>
<path d="M4565 858 c-5 -17 -55 -269 -55 -280 0 -4 51 -8 114 -8 109 0 114 1
120 23 12 45 9 47 -59 47 -36 0 -65 3 -65 8 0 4 9 54 20 112 11 58 20 106 20
107 0 10 -91 1 -95 -9z"/>
<path d="M4821 818 c-6 -29 -20 -96 -29 -148 l-19 -95 100 -3 c87 -2 106 0
146 20 62 31 91 76 91 144 0 97 -55 134 -202 134 l-77 0 -10 -52z m184 -45
c12 -12 15 -26 11 -52 -8 -49 -35 -72 -91 -79 -43 -4 -47 -3 -42 14 3 10 11
45 17 77 l11 57 39 0 c23 0 45 -7 55 -17z"/>
<path d="M1460 270 l0 -80 60 0 c33 0 60 4 60 10 0 6 -22 10 -50 10 -47 0 -50
2 -50 25 0 23 4 25 40 25 22 0 40 5 40 10 0 6 -18 10 -41 10 -38 0 -40 1 -37
28 3 24 8 28 48 33 l45 6 -57 1 -58 2 0 -80z"/>
<path d="M1610 344 c0 -3 11 -20 25 -38 l25 -32 -31 -42 c-36 -49 -23 -57 15
-9 l26 32 29 -35 c39 -47 49 -34 12 16 l-29 38 30 38 c16 21 25 38 20 38 -6 0
-22 -14 -35 -31 l-25 -32 -23 32 c-21 28 -39 40 -39 25z"/>
<path d="M1770 270 c0 -47 4 -80 10 -80 6 0 10 11 10 25 0 22 4 25 38 25 43 0
72 23 72 58 0 35 -27 52 -81 52 l-49 0 0 -80z m94 57 c11 -8 17 -23 14 -38 -3
-21 -9 -24 -45 -27 -43 -3 -43 -3 -43 31 0 18 3 37 7 40 11 11 48 8 67 -6z"/>
<path d="M1940 270 l0 -80 55 0 c30 0 55 5 55 10 0 6 -20 10 -45 10 l-45 0 0
70 c0 40 -4 70 -10 70 -6 0 -10 -33 -10 -80z"/>
<path d="M2095 325 c-52 -51 -15 -135 60 -135 46 0 85 36 85 80 0 44 -39 80
-85 80 -25 0 -44 -8 -60 -25z m99 -6 c48 -38 23 -112 -39 -111 -62 0 -87 73
-39 111 15 12 32 21 39 21 7 0 24 -9 39 -21z"/>
<path d="M2280 270 c0 -47 4 -80 10 -80 6 0 10 11 10 25 0 21 5 25 30 25 20 0
35 -8 46 -25 9 -14 21 -25 26 -25 6 0 3 12 -7 26 -15 23 -15 27 -1 43 41 45 8
91 -65 91 l-49 0 0 -80z m94 57 c11 -8 17 -23 14 -38 -3 -21 -9 -24 -45 -27
-43 -3 -43 -3 -43 31 0 18 3 37 7 40 11 11 48 8 67 -6z"/>
<path d="M2460 270 l0 -80 55 0 c30 0 55 5 55 10 0 6 -22 10 -50 10 -47 0 -50
2 -50 25 0 22 4 25 39 25 22 0 43 5 46 10 4 6 -12 10 -40 10 -45 0 -46 1 -43
28 3 24 8 28 53 33 l50 6 -57 1 -58 2 0 -80z"/>
<path d="M2762 327 c-32 -34 -30 -89 4 -116 31 -24 86 -28 104 -6 15 18 10 18
-24 5 -53 -20 -106 33 -86 85 12 33 56 50 89 35 27 -12 43 -4 21 10 -29 18
-85 11 -108 -13z"/>
<path d="M2920 270 c0 -47 4 -80 10 -80 6 0 10 11 10 25 0 21 5 25 30 25 20 0
35 -8 46 -25 9 -14 21 -25 26 -25 6 0 3 12 -7 26 -15 23 -15 27 -1 43 41 45 8
91 -65 91 l-49 0 0 -80z m94 57 c11 -8 17 -23 14 -38 -3 -21 -9 -24 -45 -27
-43 -3 -43 -3 -43 31 0 18 3 37 7 40 11 11 48 8 67 -6z"/>
<path d="M3100 270 l0 -80 55 0 c30 0 55 5 55 10 0 6 -22 10 -50 10 -47 0 -50
2 -50 25 0 22 4 25 39 25 22 0 43 5 46 10 4 6 -12 10 -40 10 -45 0 -46 1 -43
28 3 24 8 28 53 33 l50 6 -57 1 -58 2 0 -80z"/>
<path d="M3267 270 c-19 -44 -32 -80 -27 -80 5 0 14 9 20 20 8 15 21 20 55 20
34 0 47 -5 55 -20 6 -11 15 -20 20 -20 4 0 -8 36 -28 80 -20 44 -42 80 -48 80
-6 0 -27 -36 -47 -80z m71 8 c11 -27 11 -28 -23 -28 -40 0 -40 1 -19 42 17 32
23 30 42 -14z"/>
<path d="M3423 343 c27 -4 27 -5 27 -79 0 -95 18 -97 22 -2 3 72 3 73 33 79
19 4 4 7 -40 6 -38 0 -58 -2 -42 -4z"/>
<path d="M3560 270 l0 -80 55 0 c30 0 55 5 55 10 0 6 -20 10 -45 10 -41 0 -45
2 -45 25 0 23 4 25 40 25 22 0 40 5 40 10 0 6 -18 10 -40 10 -38 0 -40 2 -40
29 0 28 2 30 48 34 46 3 46 3 -10 5 l-58 2 0 -80z"/>
<path d="M3861 268 c1 -46 4 -71 6 -55 4 24 9 27 42 27 42 0 71 23 71 58 0 33
-27 52 -76 52 l-44 0 1 -82z m83 59 c11 -8 17 -23 14 -38 -3 -21 -9 -24 -45
-27 -43 -3 -43 -3 -43 31 0 18 3 37 7 40 11 11 48 8 67 -6z"/>
<path d="M4032 273 l-2 -83 50 0 c28 0 50 5 50 10 0 6 -20 10 -45 10 l-44 0
-4 73 -3 72 -2 -82z"/>
<path d="M4178 273 c-35 -77 -40 -109 -11 -65 21 31 102 33 110 2 5 -19 23
-29 23 -12 0 19 -66 152 -76 152 -6 0 -27 -35 -46 -77z m50 -21 c-17 -2 -32
-1 -34 1 -3 3 3 21 13 42 l18 37 16 -39 16 -38 -29 -3z"/>
<path d="M4310 343 c0 -5 14 -28 30 -53 16 -25 30 -57 30 -72 0 -16 5 -28 10
-28 6 0 10 14 10 31 0 18 13 54 30 80 16 27 25 49 20 49 -5 0 -20 -18 -32 -40
-13 -22 -26 -40 -30 -40 -4 0 -17 18 -29 40 -21 36 -39 52 -39 33z"/>
<path d="M2610 183 c0 -22 2 -25 10 -13 13 20 13 40 0 40 -5 0 -10 -12 -10
-27z"/>
<path d="M3713 185 c0 -13 3 -22 8 -19 5 3 9 14 9 25 0 10 -4 19 -9 19 -5 0
-8 -11 -8 -25z"/>
</g>
</svg>
